<svg xmlns="http://www.w3.org/2000/svg" xmlns:xlink="http://www.w3.org/1999/xlink" viewBox="0 0 124.062 184.0516"><defs><style>.a{fill:url(#a);}.b{fill:url(#b);}.c{fill:url(#c);}.d{fill:url(#d);}.e{fill:url(#e);}.f{fill:url(#f);}.g{fill:url(#g);}.h{fill:url(#h);}.i{fill:url(#i);}.j{fill:url(#j);}.k{fill:url(#k);}.l{fill:url(#l);}.m{fill:url(#m);}.n{fill:url(#n);}.o{fill:url(#o);}.p{fill:url(#p);}.q{fill:url(#q);}.r{fill:url(#r);}.s{fill:none;}.t{clip-path:url(#s);}.u{mask:url(#t);}.v{fill:url(#u);}.w{mask:url(#v);}.x{fill:url(#w);}.y{mask:url(#x);}.z{fill:url(#y);}.aa{mask:url(#z);}.ab{fill:url(#aa);}.ac{mask:url(#ab);}.ad{fill:url(#ac);}.ae{mask:url(#ad);}.af{fill:url(#ae);}.ag{mask:url(#af);}.ah{fill:url(#ag);}.ai{mask:url(#ah);}.aj{fill:url(#ai);}.ak{mask:url(#aj);}.al{fill:url(#ak);}.am{mask:url(#al);}.an{fill:url(#am);}.ao{mask:url(#an);}.ap{fill:url(#ao);}.aq{mask:url(#ap);}.ar{fill:url(#aq);}.as{mask:url(#ar);}.at{fill:url(#as);}.au{mask:url(#at);}.av{fill:url(#au);}.aw{mask:url(#av);}.ax{fill:url(#aw);}.ay{mask:url(#ax);}.az{fill:url(#ay);}.ba{mask:url(#az);}.bb{fill:url(#ba);}.bc{fill:url(#bb);}.bd{fill:url(#bc);}.be{fill:url(#bd);}.bf{fill:url(#be);}.bg{mask:url(#bf);}.bh{fill:url(#bg);}.bi{fill:url(#bh);}</style><linearGradient id="a" x1="11228.2924" y1="12321.183" x2="11424.0953" y2="12321.183" gradientTransform="matrix(0.1667, -0.0963, 0.0655, 0.1134, -2674.105, -171.3193)" gradientUnits="userSpaceOnUse"><stop offset="0.93" stop-color="#fff"/><stop offset="0.9561" stop-color="#fdfdfd"/><stop offset="0.9655" stop-color="#f6f6f6"/><stop offset="0.9722" stop-color="#ebebeb"/><stop offset="0.9776" stop-color="#dadada"/><stop offset="0.9822" stop-color="#c4c4c4"/><stop offset="0.9863" stop-color="#a8a8a8"/><stop offset="0.9901" stop-color="#888"/><stop offset="0.9935" stop-color="#626262"/><stop offset="0.9967" stop-color="#373737"/><stop offset="0.9995" stop-color="#090909"/><stop offset="1"/></linearGradient><linearGradient id="b" x1="7250.7912" y1="8023.7491" x2="7446.594" y2="8023.7491" gradientTransform="matrix(0.1853, -0.1501, 0.1616, 0.1995, -2632.4573, -351.9386)" gradientUnits="userSpaceOnUse"><stop offset="0.9" stop-color="#fff"/><stop offset="0.9373" stop-color="#fdfdfd"/><stop offset="0.9507" stop-color="#f6f6f6"/><stop offset="0.9603" stop-color="#ebebeb"/><stop offset="0.968" stop-color="#dadada"/><stop offset="0.9746" stop-color="#c4c4c4"/><stop offset="0.9805" stop-color="#a8a8a8"/><stop offset="0.9858" stop-color="#888"/><stop offset="0.9907" stop-color="#626262"/><stop offset="0.9952" stop-color="#373737"/><stop offset="0.9993" stop-color="#090909"/><stop offset="1"/></linearGradient><linearGradient id="c" x1="2457.3638" y1="3698.0725" x2="2653.1667" y2="3698.0725" gradientTransform="matrix(0.1957, -0.2693, 0.6031, 0.4382, -2692.1671, -771.9235)" gradientUnits="userSpaceOnUse"><stop offset="0.3166" stop-color="#fff"/><stop offset="0.5712" stop-color="#fdfdfd"/><stop offset="0.663" stop-color="#f6f6f6"/><stop offset="0.7284" stop-color="#ebebeb"/><stop offset="0.7813" stop-color="#dadada"/><stop offset="0.8266" stop-color="#c4c4c4"/><stop offset="0.8667" stop-color="#a8a8a8"/><stop offset="0.903" stop-color="#888"/><stop offset="0.9364" stop-color="#626262"/><stop offset="0.9674" stop-color="#373737"/><stop offset="0.995" stop-color="#090909"/><stop offset="1"/></linearGradient><linearGradient id="d" x1="1615.6883" y1="3946.5136" x2="1811.4911" y2="3946.5136" gradientTransform="matrix(0.1665, -0.2883, 0.6456, 0.3727, -2790.1978, -817.7223)" xlink:href="#c"/><linearGradient id="e" x1="720.4726" y1="4154.3039" x2="916.2754" y2="4154.3039" gradientTransform="matrix(0.1354, -0.3041, 0.681, 0.3032, -2892.4788, -853.0232)" xlink:href="#c"/><linearGradient id="f" x1="-218.475" y1="4319.1667" x2="-22.6721" y2="4319.1667" gradientTransform="matrix(0.1029, -0.3166, 0.709, 0.2304, -2997.8894, -877.4395)" xlink:href="#c"/><linearGradient id="g" x1="-1190.8672" y1="4439.2957" x2="-995.0644" y2="4439.2957" gradientTransform="matrix(0.0692, -0.3256, 0.7292, 0.155, -3105.2747, -890.7036)" xlink:href="#c"/><linearGradient id="h" x1="-2186.0503" y1="4513.3749" x2="-1990.2475" y2="4513.3749" gradientTransform="matrix(0.0348, -0.3311, 0.7414, 0.0779, -3213.4583, -892.6702)" xlink:href="#c"/><linearGradient id="i" x1="-3215.5986" y1="4540.5923" x2="-2997.3202" y2="4540.5923" gradientTransform="matrix(0, -0.3329, 0.7454, 0, -3321.2548, -883.3177)" xlink:href="#c"/><linearGradient id="j" x1="-94.9254" y1="908.6445" x2="100.8774" y2="908.6445" gradientTransform="matrix(0.9781, -0.2079, 0.1951, 0.9177, -130.6971, -628.1072)" gradientUnits="userSpaceOnUse"><stop offset="0"/><stop offset="1" stop-color="#fff"/></linearGradient><linearGradient id="k" x1="1103.9002" y1="3460.4126" x2="1299.7031" y2="3460.4126" gradientTransform="matrix(0.5875, -0.2994, 0.2006, 0.3938, -1330.9098, -859.3095)" gradientUnits="userSpaceOnUse"><stop offset="0" stop-color="#fff"/><stop offset="0.1557" stop-color="#c2c2c2"/><stop offset="0.3239" stop-color="#888"/><stop offset="0.4866" stop-color="#575757"/><stop offset="0.6395" stop-color="#313131"/><stop offset="0.7804" stop-color="#161616"/><stop offset="0.905" stop-color="#060606"/><stop offset="1"/></linearGradient><linearGradient id="l" x1="1176.345" y1="3226.3056" x2="1372.1479" y2="3226.3057" gradientTransform="matrix(0.5976, -0.2787, 0.1868, 0.4005, -1297.1948, -794.8293)" gradientUnits="userSpaceOnUse"><stop offset="0" stop-color="#fff"/><stop offset="0.0629" stop-color="#dadada"/><stop offset="0.1601" stop-color="#a7a7a7"/><stop offset="0.2621" stop-color="#7b7b7b"/><stop offset="0.3668" stop-color="#555"/><stop offset="0.475" stop-color="#363636"/><stop offset="0.5878" stop-color="#1e1e1e"/><stop offset="0.7072" stop-color="#0d0d0d"/><stop offset="0.8376" stop-color="#030303"/><stop offset="1"/></linearGradient><linearGradient id="m" x1="-4055.8336" y1="4520.6501" x2="-3860.0307" y2="4520.6501" gradientTransform="matrix(-0.0412, -0.3924, 0.7414, -0.0779, -3447.3172, -1051.4512)" xlink:href="#c"/><linearGradient id="n" x1="5565.8546" y1="1955.1661" x2="5761.6575" y2="1955.1661" gradientTransform="matrix(0.3041, -0.1354, 0.3032, 0.681, -2301.0889, -406.7082)" xlink:href="#c"/><linearGradient id="o" x1="5115.1004" y1="2358.2613" x2="5310.9032" y2="2358.2613" gradientTransform="matrix(0.2883, -0.1665, 0.3727, 0.6456, -2363.0866, -495.3865)" xlink:href="#c"/><linearGradient id="p" x1="4572.4657" y1="2738.1067" x2="4768.2686" y2="2738.1067" gradientTransform="matrix(0.2693, -0.1957, 0.4382, 0.6031, -2434.0141, -577.0985)" xlink:href="#c"/><linearGradient id="q" x1="3943.8959" y1="3090.5409" x2="4139.6988" y2="3090.5409" gradientTransform="matrix(0.2474, -0.2228, 0.4988, 0.554, -2513.0942, -650.9489)" xlink:href="#c"/><linearGradient id="r" x1="3236.2777" y1="3411.7024" x2="3432.0805" y2="3411.7024" gradientTransform="matrix(0.2228, -0.2474, 0.554, 0.4988, -2599.4606, -716.1286)" xlink:href="#c"/><clipPath id="s"><path class="s" d="M62.4913,184.07A61.5966,61.5966,0,0,1,2.2848,135.4384L93.4062,69.235A61.5772,61.5772,0,0,1,62.4913,184.07Z"/></clipPath><mask id="t" x="-2.0527" y="114.5726" width="45.5636" height="41.2221" maskUnits="userSpaceOnUse"><polygon class="a" points="30.593 114.573 14.27 123.997 -2.053 133.421 10.865 155.795 43.511 136.946 30.593 114.573"/></mask><linearGradient id="u" x1="11326.1934" y1="12419.8656" x2="11326.1934" y2="12222.5014" gradientTransform="matrix(0.1667, -0.0963, 0.0655, 0.1134, -2674.105, -171.3193)" gradientUnits="userSpaceOnUse"><stop offset="0.7" stop-opacity="0"/><stop offset="0.9996" stop-opacity="0.6"/></linearGradient><mask id="v" x="-8.196" y="111.4882" width="68.177" height="68.7635" maskUnits="userSpaceOnUse"><polygon class="b" points="28.096 111.488 9.95 126.182 -8.196 140.876 23.69 180.252 59.981 150.863 28.096 111.488"/></mask><linearGradient id="w" x1="7348.6922" y1="8122.4316" x2="7348.6922" y2="7925.0674" gradientTransform="matrix(0.1853, -0.1501, 0.1616, 0.1995, -2632.4573, -351.9386)" gradientUnits="userSpaceOnUse"><stop offset="0.7" stop-opacity="0"/><stop offset="1" stop-opacity="0.7"/></linearGradient><mask id="x" x="-7.8554" y="75.3498" width="154.6381" height="136.3315" maskUnits="userSpaceOnUse"><polygon class="k" points="107.185 75.35 49.665 104.658 -7.855 133.966 31.743 211.681 146.783 153.066 107.185 75.35"/></mask><linearGradient id="y" x1="1201.8028" y1="3559.0938" x2="1201.8028" y2="3361.7296" gradientTransform="matrix(0.5875, -0.2994, 0.2006, 0.3938, -1330.9098, -859.3095)" gradientUnits="userSpaceOnUse"><stop offset="0.5" stop-opacity="0.4"/><stop offset="0.9293" stop-opacity="0.2126"/><stop offset="1" stop-opacity="0"/></linearGradient><mask id="z" x="-10.0409" y="75.494" width="153.8773" height="133.6156" maskUnits="userSpaceOnUse"><polygon class="l" points="106.975 75.494 48.467 102.777 -10.041 130.059 26.821 209.11 143.836 154.544 106.975 75.494"/></mask><linearGradient id="aa" x1="1274.2475" y1="3324.9868" x2="1274.2475" y2="3127.6226" gradientTransform="matrix(0.5976, -0.2787, 0.1868, 0.4005, -1297.1948, -794.8293)" gradientUnits="userSpaceOnUse"><stop offset="0.85" stop-opacity="0.2"/><stop offset="0.9788" stop-opacity="0.1063"/><stop offset="1" stop-opacity="0"/></linearGradient><mask id="ab" x="-9.8125" y="103.3696" width="154.395" height="92.216" maskUnits="userSpaceOnUse"><polygon class="m" points="-9.813 118.748 -5.775 157.167 -1.737 195.586 144.583 180.207 136.507 103.37 -9.813 118.748"/></mask><linearGradient id="ac" x1="-3957.9325" y1="4619.3323" x2="-3957.9325" y2="4421.9681" gradientTransform="matrix(-0.0412, -0.3924, 0.7414, -0.0779, -3447.3172, -1051.4512)" gradientUnits="userSpaceOnUse"><stop offset="0" stop-opacity="0"/><stop offset="1" stop-opacity="0.2"/></linearGradient><mask id="ad" x="-45.4923" y="77.4069" width="119.3894" height="160.918" maskUnits="userSpaceOnUse"><polygon class="n" points="14.056 77.407 -15.718 90.663 -45.492 103.919 14.349 238.325 73.897 211.812 14.056 77.407"/></mask><linearGradient id="ae" x1="5663.7558" y1="2053.8486" x2="5663.7558" y2="1856.4844" gradientTransform="matrix(0.3041, -0.1354, 0.3032, 0.681, -2301.0889, -406.7082)" gradientUnits="userSpaceOnUse"><stop offset="0" stop-opacity="0"/><stop offset="1" stop-opacity="0.7"/></linearGradient><mask id="af" x="-46.1819" y="79.3365" width="130.0133" height="160.0059" maskUnits="userSpaceOnUse"><polygon class="o" points="10.269 79.337 -17.957 95.632 -46.182 111.928 27.381 239.342 83.831 206.751 10.269 79.337"/></mask><linearGradient id="ag" x1="5213.0015" y1="2456.9437" x2="5213.0015" y2="2259.5795" gradientTransform="matrix(0.2883, -0.1665, 0.3727, 0.6456, -2363.0866, -495.3865)" xlink:href="#ae"/><mask id="ah" x="-46.0307" y="81.6515" width="139.2126" height="157.3407" maskUnits="userSpaceOnUse"><polygon class="p" points="6.704 81.651 -19.663 100.809 -46.031 119.966 40.447 238.992 93.182 200.678 6.704 81.651"/></mask><linearGradient id="ai" x1="4670.3669" y1="2836.7892" x2="4670.3669" y2="2639.425" gradientTransform="matrix(0.2693, -0.1957, 0.4382, 0.6031, -2434.0141, -577.0985)" xlink:href="#ae"/><mask id="aj" x="-45.0401" y="84.3264" width="146.8868" height="152.9516" maskUnits="userSpaceOnUse"><polygon class="q" points="3.401 84.326 -20.82 106.135 -45.04 127.943 53.406 237.278 101.847 193.662 3.401 84.326"/></mask><linearGradient id="ak" x1="4041.7971" y1="3189.2233" x2="4041.7971" y2="2991.8591" gradientTransform="matrix(0.2474, -0.2228, 0.4988, 0.554, -2513.0942, -650.9489)" xlink:href="#ae"/><mask id="al" x="-43.2211" y="87.3319" width="152.9516" height="146.8868" maskUnits="userSpaceOnUse"><polygon class="r" points="0.395 87.332 -21.413 111.552 -43.221 135.773 66.114 234.219 109.731 185.778 0.395 87.332"/></mask><linearGradient id="am" x1="3334.1788" y1="3510.3848" x2="3334.1788" y2="3313.0206" gradientTransform="matrix(0.2228, -0.2474, 0.554, 0.4988, -2599.4606, -716.1286)" xlink:href="#ae"/><mask id="an" x="-40.5936" y="90.6352" width="157.3407" height="139.2126" maskUnits="userSpaceOnUse"><polygon class="c" points="-2.28 90.635 -21.437 117.003 -40.594 143.37 78.433 229.848 116.747 177.113 -2.28 90.635"/></mask><linearGradient id="ao" x1="2555.2649" y1="3796.7548" x2="2555.2649" y2="3599.3906" gradientTransform="matrix(0.1957, -0.2693, 0.6031, 0.4382, -2692.1671, -771.9235)" xlink:href="#ae"/><mask id="ap" x="-37.1864" y="94.1999" width="160.0059" height="130.0132" maskUnits="userSpaceOnUse"><polygon class="d" points="-4.595 94.2 -20.891 122.425 -37.186 150.651 90.228 224.213 122.819 167.762 -4.595 94.2"/></mask><linearGradient id="aq" x1="1713.5894" y1="4045.196" x2="1713.5894" y2="3847.8318" gradientTransform="matrix(0.1665, -0.2883, 0.6456, 0.3727, -2790.1978, -817.7223)" xlink:href="#ae"/><mask id="ar" x="-33.0368" y="97.9871" width="160.918" height="119.3894" maskUnits="userSpaceOnUse"><polygon class="e" points="-6.524 97.987 -19.781 127.761 -33.037 157.535 101.369 217.377 127.881 157.828 -6.524 97.987"/></mask><linearGradient id="as" x1="818.3737" y1="4252.9862" x2="818.3737" y2="4055.622" gradientTransform="matrix(0.1354, -0.3041, 0.681, 0.3032, -2892.4788, -853.0232)" xlink:href="#ae"/><mask id="at" x="-28.1904" y="101.9552" width="160.0671" height="107.4575" maskUnits="userSpaceOnUse"><polygon class="f" points="-8.047 101.955 -18.119 132.952 -28.19 163.949 111.734 209.413 131.877 147.419 -8.047 101.955"/></mask><linearGradient id="au" x1="-120.5739" y1="4417.849" x2="-120.5739" y2="4220.4848" gradientTransform="matrix(0.1029, -0.3166, 0.709, 0.2304, -2997.8894, -877.4395)" gradientUnits="userSpaceOnUse"><stop offset="0" stop-opacity="0"/><stop offset="1" stop-opacity="0.3"/></linearGradient><mask id="av" x="-22.7" y="106.0609" width="157.4625" height="94.3483" maskUnits="userSpaceOnUse"><polygon class="g" points="-9.148 106.061 -15.924 137.941 -22.7 169.82 121.21 200.409 134.762 136.65 -9.148 106.061"/></mask><linearGradient id="aw" x1="-1092.9661" y1="4537.978" x2="-1092.9661" y2="4340.6138" gradientTransform="matrix(0.0692, -0.3256, 0.7292, 0.155, -3105.2747, -890.7036)" xlink:href="#au"/><mask id="ax" x="-16.6261" y="110.259" width="153.1326" height="80.2054" maskUnits="userSpaceOnUse"><polygon class="h" points="-9.813 110.259 -13.219 142.672 -16.626 175.086 129.693 190.464 136.507 125.638 -9.813 110.259"/></mask><linearGradient id="ay" x1="-2088.1492" y1="4612.0571" x2="-2088.1492" y2="4414.6929" gradientTransform="matrix(0.0348, -0.3311, 0.7414, 0.0779, -3213.4583, -892.6702)" xlink:href="#au"/><mask id="az" x="-10.0351" y="114.5044" width="147.125" height="72.6659" maskUnits="userSpaceOnUse"><polygon class="i" points="-10.035 114.504 -10.035 150.837 -10.035 187.17 137.09 187.17 137.09 114.504 -10.035 114.504"/></mask><linearGradient id="ba" x1="-3106.4597" y1="4639.2746" x2="-3106.4597" y2="4441.9104" gradientTransform="matrix(0, -0.3329, 0.7454, 0, -3321.2548, -883.3177)" xlink:href="#ac"/><linearGradient id="bb" x1="-83.0566" y1="2086.8508" x2="-83.0566" y2="1889.4866" gradientTransform="matrix(0.9511, -0.309, 0.1691, 0.5204, -221.1704, -916.996)" gradientUnits="userSpaceOnUse"><stop offset="0" stop-opacity="0.6"/><stop offset="1" stop-opacity="0"/></linearGradient><linearGradient id="bc" x1="-534.3643" y1="2308.5363" x2="-534.3643" y2="2111.1721" gradientTransform="matrix(0.809, -0.5878, 0.5515, 0.7591, -701.7559, -1801.9769)" gradientUnits="userSpaceOnUse"><stop offset="0" stop-opacity="0.5"/><stop offset="1" stop-opacity="0"/></linearGradient><linearGradient id="bd" x1="-352.3057" y1="2007.7615" x2="-352.3057" y2="1810.3973" gradientTransform="matrix(0.866, -0.5, 0.4691, 0.8125, -513.9758, -1532.5679)" xlink:href="#bc"/><linearGradient id="be" x1="-200.7423" y1="1688.3514" x2="-200.7423" y2="1490.9872" gradientTransform="translate(-355.3853 -1245.0063) rotate(-24) scale(1 0.9382)" xlink:href="#bb"/><mask id="bf" x="-65.5474" y="94.2541" width="230.0242" height="221.8387" maskUnits="userSpaceOnUse"><polygon class="j" points="125.977 94.254 30.215 114.609 -65.547 134.964 -27.047 316.093 164.477 275.383 125.977 94.254"/></mask><linearGradient id="bg" x1="2.976" y1="1007.3266" x2="2.976" y2="809.9624" gradientTransform="matrix(0.9781, -0.2079, 0.1951, 0.9177, -130.6971, -628.1072)" xlink:href="#bb"/><linearGradient id="bh" x1="-79.7021" y1="1354.2683" x2="-79.7021" y2="1156.9041" gradientTransform="matrix(0.9511, -0.309, 0.2899, 0.8923, -229.4088, -942.3513)" xlink:href="#bb"/></defs><title>bildmarke</title><g class="t"><g class="u"><polygon class="v" points="30.593 114.573 14.27 123.997 -2.053 133.421 10.865 155.795 43.511 136.946 30.593 114.573"/></g><g class="w"><polygon class="x" points="28.096 111.488 9.95 126.182 -8.196 140.876 23.69 180.252 59.981 150.863 28.096 111.488"/></g><g class="y"><polygon class="z" points="107.185 75.35 49.665 104.658 -7.855 133.966 31.743 211.681 146.783 153.066 107.185 75.35"/></g><g class="aa"><polygon class="ab" points="106.975 75.494 48.467 102.777 -10.041 130.059 26.821 209.11 143.836 154.544 106.975 75.494"/></g><g class="ac"><polygon class="ad" points="-9.813 118.748 -5.775 157.167 -1.737 195.586 144.583 180.207 136.507 103.37 30.573 114.504 -9.813 118.748"/></g><g class="ae"><polygon class="af" points="14.056 77.407 -15.718 90.663 -45.492 103.919 14.349 238.325 73.897 211.812 30.573 114.504 14.056 77.407"/></g><g class="ag"><polygon class="ah" points="10.269 79.337 -17.957 95.632 -46.182 111.928 27.381 239.342 83.831 206.751 30.573 114.504 10.269 79.337"/></g><g class="ai"><polygon class="aj" points="6.704 81.651 -19.663 100.809 -46.031 119.966 40.447 238.992 93.182 200.678 30.573 114.504 6.704 81.651"/></g><g class="ak"><polygon class="al" points="3.401 84.326 -20.82 106.135 -45.04 127.943 53.406 237.278 101.847 193.662 30.573 114.504 3.401 84.326"/></g><g class="am"><polygon class="an" points="0.395 87.332 -21.413 111.552 -43.221 135.773 66.114 234.219 109.731 185.778 30.573 114.504 0.395 87.332"/></g><g class="ao"><polygon class="ap" points="-2.28 90.635 -21.437 117.003 -40.594 143.37 78.433 229.848 116.747 177.113 30.573 114.504 -2.28 90.635"/></g><g class="aq"><polygon class="ar" points="-4.595 94.2 -20.891 122.425 -37.186 150.651 90.228 224.213 122.819 167.762 30.573 114.504 -4.595 94.2"/></g><g class="as"><polygon class="at" points="-6.524 97.987 -19.781 127.761 -33.037 157.535 101.369 217.377 127.881 157.828 30.573 114.504 -6.524 97.987"/></g><g class="au"><polygon class="av" points="-8.047 101.955 -18.119 132.952 -28.19 163.949 111.734 209.413 131.877 147.419 30.573 114.504 -8.047 101.955"/></g><g class="aw"><polygon class="ax" points="-9.148 106.061 -15.924 137.941 -22.7 169.82 121.21 200.409 134.762 136.65 30.573 114.504 -9.148 106.061"/></g><g class="ay"><polygon class="az" points="-9.813 110.259 -13.219 142.672 -16.626 175.086 129.693 190.464 136.507 125.638 30.573 114.504 -9.813 110.259"/></g><g class="ba"><polygon class="bb" points="-10.035 114.504 -10.035 150.837 -10.035 187.17 137.09 187.17 137.09 114.504 30.572 114.504 -10.035 114.504"/></g><polygon class="bc" points="112.425 61.666 19.316 91.919 -73.794 122.173 -40.424 224.877 145.796 164.37 112.425 61.666"/><polygon class="bd" points="109.419 57.064 30.215 114.609 -48.989 172.154 59.854 321.964 218.262 206.874 109.419 57.064"/><polygon class="be" points="115 65.658 30.215 114.609 -54.571 163.56 38.017 323.926 207.587 226.025 115 65.658"/><polygon class="bf" points="119.652 74.789 30.215 114.609 -59.223 154.429 16.095 323.595 194.97 243.955 119.652 74.789"/><g class="bg"><polygon class="bh" points="125.977 94.254 30.215 114.609 -65.547 134.964 -27.047 316.093 164.477 275.383 125.977 94.254"/></g><polygon class="bi" points="123.324 84.356 30.215 114.609 -62.895 144.862 -5.673 320.975 180.547 260.468 123.324 84.356"/></g><path d="M61.5824-.0179A61.58,61.58,0,0,0,30.6675,114.8168l61.83-44.9221,29.2917-21.2815A61.5967,61.5967,0,0,0,61.5824-.0179Z"/></svg>