<svg xmlns="http://www.w3.org/2000/svg" xmlns:xlink="http://www.w3.org/1999/xlink" viewBox="0 0 124.062 184.0516"><defs><style>.a{fill:url(#a);}.b{fill:url(#b);}.c{fill:url(#c);}.d{fill:url(#d);}.e{fill:url(#e);}.f{fill:url(#f);}.g{fill:url(#g);}.h{fill:url(#h);}.i{fill:url(#i);}.j{fill:url(#j);}.k{fill:url(#k);}.l{fill:url(#l);}.m{fill:url(#m);}.n{fill:url(#n);}.o{fill:url(#o);}.p{fill:url(#p);}.q{fill:url(#q);}.r{fill:url(#r);}.s{fill:none;}.t{clip-path:url(#s);}.u{mask:url(#t);}.v{fill:url(#u);}.w{mask:url(#v);}.x{fill:url(#w);}.y{mask:url(#x);}.z{fill:url(#y);}.aa{mask:url(#z);}.ab{fill:url(#aa);}.ac{mask:url(#ab);}.ad{fill:url(#ac);}.ae{mask:url(#ad);}.af{fill:url(#ae);}.ag{mask:url(#af);}.ah{fill:url(#ag);}.ai{mask:url(#ah);}.aj{fill:url(#ai);}.ak{mask:url(#aj);}.al{fill:url(#ak);}.am{mask:url(#al);}.an{fill:url(#am);}.ao{mask:url(#an);}.ap{fill:url(#ao);}.aq{mask:url(#ap);}.ar{fill:url(#aq);}.as{mask:url(#ar);}.at{fill:url(#as);}.au{mask:url(#at);}.av{fill:url(#au);}.aw{mask:url(#av);}.ax{fill:url(#aw);}.ay{mask:url(#ax);}.az{fill:url(#ay);}.ba{mask:url(#az);}.bb{fill:url(#ba);}.bc{fill:url(#bb);}.bd{fill:url(#bc);}.be{fill:url(#bd);}.bf{fill:url(#be);}.bg{mask:url(#bf);}.bh{fill:url(#bg);}.bi{fill:url(#bh);}.bj{fill:#fff;}</style><linearGradient id="a" x1="13544.8629" y1="7311.9369" x2="13740.6658" y2="7311.9369" gradientTransform="matrix(0.1667, -0.0963, 0.0655, 0.1134, -2732.4869, 619.5603)" gradientUnits="userSpaceOnUse"><stop offset="0.93" stop-color="#fff"/><stop offset="0.9561" stop-color="#fdfdfd"/><stop offset="0.9655" stop-color="#f6f6f6"/><stop offset="0.9722" stop-color="#ebebeb"/><stop offset="0.9776" stop-color="#dadada"/><stop offset="0.9822" stop-color="#c4c4c4"/><stop offset="0.9863" stop-color="#a8a8a8"/><stop offset="0.9901" stop-color="#888"/><stop offset="0.9935" stop-color="#626262"/><stop offset="0.9967" stop-color="#373737"/><stop offset="0.9995" stop-color="#090909"/><stop offset="1"/></linearGradient><linearGradient id="b" x1="9604.4543" y1="6215.4832" x2="9800.2571" y2="6215.4832" gradientTransform="matrix(0.1853, -0.1501, 0.1616, 0.1995, -2776.5656, 362.1025)" gradientUnits="userSpaceOnUse"><stop offset="0.9" stop-color="#fff"/><stop offset="0.9373" stop-color="#fdfdfd"/><stop offset="0.9507" stop-color="#f6f6f6"/><stop offset="0.9603" stop-color="#ebebeb"/><stop offset="0.968" stop-color="#dadada"/><stop offset="0.9746" stop-color="#c4c4c4"/><stop offset="0.9805" stop-color="#a8a8a8"/><stop offset="0.9858" stop-color="#888"/><stop offset="0.9907" stop-color="#626262"/><stop offset="0.9952" stop-color="#373737"/><stop offset="0.9993" stop-color="#090909"/><stop offset="1"/></linearGradient><linearGradient id="c" x1="4625.0371" y1="3886.7465" x2="4820.84" y2="3886.7465" gradientTransform="matrix(0.1957, -0.2693, 0.6031, 0.4382, -3230.1156, -270.766)" gradientUnits="userSpaceOnUse"><stop offset="0.3166" stop-color="#fff"/><stop offset="0.5712" stop-color="#fdfdfd"/><stop offset="0.663" stop-color="#f6f6f6"/><stop offset="0.7284" stop-color="#ebebeb"/><stop offset="0.7813" stop-color="#dadada"/><stop offset="0.8266" stop-color="#c4c4c4"/><stop offset="0.8667" stop-color="#a8a8a8"/><stop offset="0.903" stop-color="#888"/><stop offset="0.9364" stop-color="#626262"/><stop offset="0.9674" stop-color="#373737"/><stop offset="0.995" stop-color="#090909"/><stop offset="1"/></linearGradient><linearGradient id="d" x1="3936.1094" y1="4240.2288" x2="4131.9123" y2="4240.2288" gradientTransform="matrix(0.1665, -0.2883, 0.6456, 0.3727, -3366.0535, -258.1928)" xlink:href="#c"/><linearGradient id="e" x1="3168.2186" y1="4559.6152" x2="3364.0215" y2="4559.6152" gradientTransform="matrix(0.1354, -0.3041, 0.681, 0.3032, -3499.9325, -231.4791)" xlink:href="#c"/><linearGradient id="f" x1="2329.7779" y1="4841.4063" x2="2525.5807" y2="4841.4063" gradientTransform="matrix(0.1029, -0.3166, 0.709, 0.2304, -3630.2858, -190.9175)" xlink:href="#c"/><linearGradient id="g" x1="1429.9733" y1="5082.5149" x2="1625.7761" y2="5082.5149" gradientTransform="matrix(0.0692, -0.3256, 0.7292, 0.155, -3755.6851, -136.9525)" xlink:href="#c"/><linearGradient id="h" x1="478.6633" y1="5280.2992" x2="674.4662" y2="5280.2992" gradientTransform="matrix(0.0348, -0.3311, 0.7414, 0.0779, -3874.7566, -70.1754)" xlink:href="#c"/><linearGradient id="i" x1="-536.207" y1="5432.5922" x2="-317.9285" y2="5432.5922" gradientTransform="matrix(0, -0.3329, 0.7454, 0, -3986.1957, 8.6823)" xlink:href="#c"/><linearGradient id="j" x1="90.5281" y1="870.7252" x2="286.3309" y2="870.7252" gradientTransform="matrix(0.9781, -0.2079, 0.1951, 0.9177, -304.701, -554.7312)" gradientUnits="userSpaceOnUse"><stop offset="0"/><stop offset="1" stop-color="#fff"/></linearGradient><linearGradient id="k" x1="1718.0211" y1="2554.048" x2="1913.8239" y2="2554.0481" gradientTransform="matrix(0.5875, -0.2994, 0.2006, 0.3938, -1509.8759, -318.5503)" gradientUnits="userSpaceOnUse"><stop offset="0" stop-color="#fff"/><stop offset="0.1557" stop-color="#c2c2c2"/><stop offset="0.3239" stop-color="#888"/><stop offset="0.4866" stop-color="#575757"/><stop offset="0.6395" stop-color="#313131"/><stop offset="0.7804" stop-color="#161616"/><stop offset="0.905" stop-color="#060606"/><stop offset="1"/></linearGradient><linearGradient id="l" x1="1748.0281" y1="2289.0577" x2="1943.831" y2="2289.0577" gradientTransform="matrix(0.5976, -0.2787, 0.1868, 0.4005, -1463.7937, -260.102)" gradientUnits="userSpaceOnUse"><stop offset="0" stop-color="#fff"/><stop offset="0.0629" stop-color="#dadada"/><stop offset="0.1601" stop-color="#a7a7a7"/><stop offset="0.2621" stop-color="#7b7b7b"/><stop offset="0.3668" stop-color="#555"/><stop offset="0.475" stop-color="#363636"/><stop offset="0.5878" stop-color="#1e1e1e"/><stop offset="0.7072" stop-color="#0d0d0d"/><stop offset="0.8376" stop-color="#030303"/><stop offset="1"/></linearGradient><linearGradient id="m" x1="-1807.6506" y1="5537.7261" x2="-1611.8478" y2="5537.7261" gradientTransform="matrix(-0.0412, -0.3924, 0.7414, -0.0779, -4108.6155, -89.9463)" xlink:href="#c"/><linearGradient id="n" x1="6655.6613" y1="1754.0455" x2="6851.4642" y2="1754.0455" gradientTransform="matrix(0.3041, -0.1354, 0.3032, 0.681, -2571.5447, -122.162)" xlink:href="#c"/><linearGradient id="o" x1="6454.7961" y1="2214.0017" x2="6650.599" y2="2214.0017" gradientTransform="matrix(0.2883, -0.1665, 0.3727, 0.6456, -2695.5571, -179.2422)" xlink:href="#c"/><linearGradient id="p" x1="6147.3726" y1="2662.0617" x2="6343.1754" y2="2662.0617" gradientTransform="matrix(0.2693, -0.1957, 0.4382, 0.6031, -2824.8565, -223.047)" xlink:href="#c"/><linearGradient id="q" x1="5736.7588" y1="3093.3165" x2="5932.5617" y2="3093.3164" gradientTransform="matrix(0.2474, -0.2228, 0.4988, 0.554, -2958.0266, -253.0963)" xlink:href="#c"/><linearGradient id="r" x1="5227.4537" y1="3503.0411" x2="5423.2565" y2="3503.0411" gradientTransform="matrix(0.2228, -0.2474, 0.554, 0.4988, -3093.608, -269.0609)" xlink:href="#c"/><clipPath id="s"><path class="s" d="M62.4913,184.0874A61.5966,61.5966,0,0,1,2.2848,135.4563L93.4062,69.2529A61.5772,61.5772,0,0,1,62.4913,184.0874Z"/></clipPath><mask id="t" x="-2.0527" y="114.5905" width="45.5636" height="41.2221" maskUnits="userSpaceOnUse"><polygon class="a" points="30.593 114.591 14.27 124.015 -2.053 133.439 10.865 155.813 43.511 136.964 30.593 114.591"/></mask><linearGradient id="u" x1="13642.764" y1="7410.6196" x2="13642.764" y2="7213.2554" gradientTransform="matrix(0.1667, -0.0963, 0.0655, 0.1134, -2732.4869, 619.5603)" gradientUnits="userSpaceOnUse"><stop offset="0.7" stop-color="#fff" stop-opacity="0"/><stop offset="1" stop-color="#fff" stop-opacity="0.6"/></linearGradient><mask id="v" x="-8.196" y="111.5061" width="68.177" height="68.7635" maskUnits="userSpaceOnUse"><polygon class="b" points="28.096 111.506 9.95 126.2 -8.196 140.894 23.69 180.27 59.981 150.881 28.096 111.506"/></mask><linearGradient id="w" x1="9702.3554" y1="6314.1657" x2="9702.3554" y2="6116.8015" gradientTransform="matrix(0.1853, -0.1501, 0.1616, 0.1995, -2776.5656, 362.1025)" gradientUnits="userSpaceOnUse"><stop offset="0.7" stop-color="#fff" stop-opacity="0"/><stop offset="1" stop-color="#fff" stop-opacity="0.7"/></linearGradient><mask id="x" x="-7.8554" y="75.3678" width="154.6381" height="136.3315" maskUnits="userSpaceOnUse"><polygon class="k" points="107.185 75.368 49.665 104.676 -7.855 133.984 31.743 211.699 146.783 153.083 107.185 75.368"/></mask><linearGradient id="y" x1="1815.9234" y1="2652.7291" x2="1815.9234" y2="2455.3649" gradientTransform="matrix(0.5875, -0.2994, 0.2006, 0.3938, -1509.8759, -318.5503)" gradientUnits="userSpaceOnUse"><stop offset="0.5" stop-color="#fff" stop-opacity="0.4"/><stop offset="0.724" stop-color="#fff" stop-opacity="0.3927"/><stop offset="0.8047" stop-color="#fff" stop-opacity="0.366"/><stop offset="0.8621" stop-color="#fff" stop-opacity="0.3197"/><stop offset="0.9087" stop-color="#fff" stop-opacity="0.2535"/><stop offset="0.9485" stop-color="#fff" stop-opacity="0.1672"/><stop offset="0.9831" stop-color="#fff" stop-opacity="0.0629"/><stop offset="1" stop-color="#fff" stop-opacity="0"/></linearGradient><mask id="z" x="-10.0409" y="75.512" width="153.8773" height="133.6156" maskUnits="userSpaceOnUse"><polygon class="l" points="106.975 75.512 48.467 102.795 -10.041 130.077 26.821 209.128 143.836 154.562 106.975 75.512"/></mask><linearGradient id="aa" x1="1845.9304" y1="2387.7388" x2="1845.9304" y2="2190.3746" gradientTransform="matrix(0.5976, -0.2787, 0.1868, 0.4005, -1463.7937, -260.102)" gradientUnits="userSpaceOnUse"><stop offset="0.85" stop-color="#fff" stop-opacity="0.2"/><stop offset="0.9272" stop-color="#fff" stop-opacity="0.1927"/><stop offset="0.9551" stop-color="#fff" stop-opacity="0.166"/><stop offset="0.9749" stop-color="#fff" stop-opacity="0.1197"/><stop offset="0.9908" stop-color="#fff" stop-opacity="0.0541"/><stop offset="1" stop-color="#fff" stop-opacity="0"/></linearGradient><mask id="ab" x="-9.8125" y="103.3876" width="154.395" height="92.216" maskUnits="userSpaceOnUse"><polygon class="m" points="-9.813 118.766 -5.775 157.185 -1.737 195.604 144.583 180.225 136.507 103.388 -9.813 118.766"/></mask><linearGradient id="ac" x1="-1709.7495" y1="5636.4084" x2="-1709.7495" y2="5439.0442" gradientTransform="matrix(-0.0412, -0.3924, 0.7414, -0.0779, -4108.6155, -89.9463)" gradientUnits="userSpaceOnUse"><stop offset="0" stop-color="#fff" stop-opacity="0"/><stop offset="1" stop-color="#fff" stop-opacity="0.2"/></linearGradient><mask id="ad" x="-45.4923" y="77.4248" width="119.3894" height="160.918" maskUnits="userSpaceOnUse"><polygon class="n" points="14.056 77.425 -15.718 90.681 -45.492 103.937 14.349 238.343 73.897 211.83 14.056 77.425"/></mask><linearGradient id="ae" x1="6753.5625" y1="1852.728" x2="6753.5625" y2="1655.3638" gradientTransform="matrix(0.3041, -0.1354, 0.3032, 0.681, -2571.5447, -122.162)" gradientUnits="userSpaceOnUse"><stop offset="0" stop-color="#fff" stop-opacity="0"/><stop offset="1" stop-color="#fff" stop-opacity="0.7"/></linearGradient><mask id="af" x="-46.1819" y="79.3545" width="130.0133" height="160.0059" maskUnits="userSpaceOnUse"><polygon class="o" points="10.269 79.354 -17.957 95.65 -46.182 111.946 27.381 239.36 83.831 206.768 10.269 79.354"/></mask><linearGradient id="ag" x1="6552.6973" y1="2312.6842" x2="6552.6973" y2="2115.32" gradientTransform="matrix(0.2883, -0.1665, 0.3727, 0.6456, -2695.5571, -179.2422)" xlink:href="#ae"/><mask id="ah" x="-46.0307" y="81.6694" width="139.2126" height="157.3407" maskUnits="userSpaceOnUse"><polygon class="p" points="6.704 81.669 -19.663 100.826 -46.031 119.983 40.447 239.01 93.182 200.696 6.704 81.669"/></mask><linearGradient id="ai" x1="6245.2738" y1="2760.7442" x2="6245.2738" y2="2563.38" gradientTransform="matrix(0.2693, -0.1957, 0.4382, 0.6031, -2824.8565, -223.047)" xlink:href="#ae"/><mask id="aj" x="-45.0401" y="84.3443" width="146.8868" height="152.9516" maskUnits="userSpaceOnUse"><polygon class="q" points="3.401 84.344 -20.82 106.153 -45.04 127.961 53.406 237.296 101.847 193.68 3.401 84.344"/></mask><linearGradient id="ak" x1="5834.66" y1="3191.9989" x2="5834.66" y2="2994.6347" gradientTransform="matrix(0.2474, -0.2228, 0.4988, 0.554, -2958.0266, -253.0963)" xlink:href="#ae"/><mask id="al" x="-43.2211" y="87.3499" width="152.9516" height="146.8868" maskUnits="userSpaceOnUse"><polygon class="r" points="0.395 87.35 -21.413 111.57 -43.221 135.791 66.114 234.237 109.731 185.796 0.395 87.35"/></mask><linearGradient id="am" x1="5325.3548" y1="3601.7235" x2="5325.3548" y2="3404.3593" gradientTransform="matrix(0.2228, -0.2474, 0.554, 0.4988, -3093.608, -269.0609)" xlink:href="#ae"/><mask id="an" x="-40.5936" y="90.6531" width="157.3407" height="139.2126" maskUnits="userSpaceOnUse"><polygon class="c" points="-2.28 90.653 -21.437 117.02 -40.594 143.388 78.433 229.866 116.747 177.131 -2.28 90.653"/></mask><linearGradient id="ao" x1="4722.9383" y1="3985.4289" x2="4722.9383" y2="3788.0647" gradientTransform="matrix(0.1957, -0.2693, 0.6031, 0.4382, -3230.1156, -270.766)" xlink:href="#ae"/><mask id="ap" x="-37.1864" y="94.2178" width="160.0059" height="130.0132" maskUnits="userSpaceOnUse"><polygon class="d" points="-4.595 94.218 -20.891 122.443 -37.186 150.669 90.228 224.231 122.819 167.78 -4.595 94.218"/></mask><linearGradient id="aq" x1="4034.0106" y1="4338.9112" x2="4034.0106" y2="4141.547" gradientTransform="matrix(0.1665, -0.2883, 0.6456, 0.3727, -3366.0535, -258.1928)" xlink:href="#ae"/><mask id="ar" x="-33.0368" y="98.005" width="160.918" height="119.3894" maskUnits="userSpaceOnUse"><polygon class="e" points="-6.524 98.005 -19.781 127.779 -33.037 157.553 101.369 217.394 127.881 157.846 -6.524 98.005"/></mask><linearGradient id="as" x1="3266.1198" y1="4658.2976" x2="3266.1198" y2="4460.9334" gradientTransform="matrix(0.1354, -0.3041, 0.681, 0.3032, -3499.9325, -231.4791)" xlink:href="#ae"/><mask id="at" x="-28.1904" y="101.9732" width="160.0671" height="107.4575" maskUnits="userSpaceOnUse"><polygon class="f" points="-8.047 101.973 -18.119 132.97 -28.19 163.967 111.734 209.431 131.877 147.437 -8.047 101.973"/></mask><linearGradient id="au" x1="2427.679" y1="4940.0887" x2="2427.679" y2="4742.7245" gradientTransform="matrix(0.1029, -0.3166, 0.709, 0.2304, -3630.2858, -190.9175)" gradientUnits="userSpaceOnUse"><stop offset="0" stop-color="#fff" stop-opacity="0"/><stop offset="1" stop-color="#fff" stop-opacity="0.3"/></linearGradient><mask id="av" x="-22.7" y="106.0788" width="157.4625" height="94.3483" maskUnits="userSpaceOnUse"><polygon class="g" points="-9.148 106.079 -15.924 137.958 -22.7 169.838 121.21 200.427 134.762 136.668 -9.148 106.079"/></mask><linearGradient id="aw" x1="1527.8744" y1="5181.1972" x2="1527.8744" y2="4983.833" gradientTransform="matrix(0.0692, -0.3256, 0.7292, 0.155, -3755.6851, -136.9525)" xlink:href="#au"/><mask id="ax" x="-16.6261" y="110.277" width="153.1326" height="80.2054" maskUnits="userSpaceOnUse"><polygon class="h" points="-9.813 110.277 -13.219 142.69 -16.626 175.104 129.693 190.482 136.507 125.656 -9.813 110.277"/></mask><linearGradient id="ay" x1="576.5644" y1="5378.9815" x2="576.5644" y2="5181.6173" gradientTransform="matrix(0.0348, -0.3311, 0.7414, 0.0779, -3874.7566, -70.1754)" xlink:href="#au"/><mask id="az" x="-10.0351" y="114.5223" width="147.125" height="72.6659" maskUnits="userSpaceOnUse"><polygon class="i" points="-10.035 114.522 -10.035 150.855 -10.035 187.188 137.09 187.188 137.09 114.522 -10.035 114.522"/></mask><linearGradient id="ba" x1="-427.0681" y1="5531.2746" x2="-427.0681" y2="5333.9104" gradientTransform="matrix(0, -0.3329, 0.7454, 0, -3986.1957, 8.6823)" xlink:href="#ac"/><linearGradient id="bb" x1="192.5813" y1="1428.4328" x2="192.5813" y2="1231.0686" gradientTransform="matrix(0.9511, -0.309, 0.1691, 0.5204, -371.9913, -489.1743)" gradientUnits="userSpaceOnUse"><stop offset="0" stop-color="#fff" stop-opacity="0.6"/><stop offset="1" stop-color="#fff" stop-opacity="0"/></linearGradient><linearGradient id="bc" x1="-10.0704" y1="2431.4085" x2="-10.0704" y2="2234.0443" gradientTransform="matrix(0.809, -0.5878, 0.5515, 0.7591, -1193.6808, -1587.0534)" gradientUnits="userSpaceOnUse"><stop offset="0" stop-color="#fff" stop-opacity="0.5"/><stop offset="1" stop-color="#fff" stop-opacity="0"/></linearGradient><linearGradient id="bd" x1="93.6854" y1="2076.4361" x2="93.6854" y2="1879.0719" gradientTransform="matrix(0.866, -0.5, 0.4691, 0.8125, -932.4321, -1365.3554)" xlink:href="#bc"/><linearGradient id="be" x1="162.0595" y1="1711.8489" x2="162.0595" y2="1514.4847" gradientTransform="translate(-695.7883 -1117.564) rotate(-24) scale(1 0.9382)" xlink:href="#bb"/><mask id="bf" x="-65.5474" y="94.272" width="230.0242" height="221.8387" maskUnits="userSpaceOnUse"><polygon class="j" points="125.977 94.272 30.215 114.627 -65.547 134.982 -27.047 316.111 164.477 275.401 125.977 94.272"/></mask><linearGradient id="bg" x1="188.4295" y1="969.4073" x2="188.4295" y2="772.0431" gradientTransform="matrix(0.9781, -0.2079, 0.1951, 0.9177, -304.701, -554.7312)" xlink:href="#bb"/><linearGradient id="bh" x1="195.9355" y1="1342.1043" x2="195.9355" y2="1144.7402" gradientTransform="matrix(0.9511, -0.309, 0.2899, 0.8923, -488.0291, -846.3024)" xlink:href="#bb"/></defs><title>bildmarke_weiss</title><g class="t"><g class="u"><polygon class="v" points="30.593 114.591 14.27 124.015 -2.053 133.439 10.865 155.813 43.511 136.964 30.593 114.591"/></g><g class="w"><polygon class="x" points="28.096 111.506 9.95 126.2 -8.196 140.894 23.69 180.27 59.981 150.881 28.096 111.506"/></g><g class="y"><polygon class="z" points="107.185 75.368 49.665 104.676 -7.855 133.984 31.743 211.699 146.783 153.083 107.185 75.368"/></g><g class="aa"><polygon class="ab" points="106.975 75.512 48.467 102.795 -10.041 130.077 26.821 209.128 143.836 154.562 106.975 75.512"/></g><g class="ac"><polygon class="ad" points="-9.813 118.766 -5.775 157.185 -1.737 195.604 144.583 180.225 136.507 103.388 30.573 114.522 -9.813 118.766"/></g><g class="ae"><polygon class="af" points="14.056 77.425 -15.718 90.681 -45.492 103.937 14.349 238.343 73.897 211.83 30.573 114.522 14.056 77.425"/></g><g class="ag"><polygon class="ah" points="10.269 79.354 -17.957 95.65 -46.182 111.946 27.381 239.36 83.831 206.768 30.573 114.522 10.269 79.354"/></g><g class="ai"><polygon class="aj" points="6.704 81.669 -19.663 100.826 -46.031 119.983 40.447 239.01 93.182 200.696 30.573 114.522 6.704 81.669"/></g><g class="ak"><polygon class="al" points="3.401 84.344 -20.82 106.153 -45.04 127.961 53.406 237.296 101.847 193.68 30.573 114.522 3.401 84.344"/></g><g class="am"><polygon class="an" points="0.395 87.35 -21.413 111.57 -43.221 135.791 66.114 234.237 109.731 185.796 30.573 114.522 0.395 87.35"/></g><g class="ao"><polygon class="ap" points="-2.28 90.653 -21.437 117.02 -40.594 143.388 78.433 229.866 116.747 177.131 30.573 114.522 -2.28 90.653"/></g><g class="aq"><polygon class="ar" points="-4.595 94.218 -20.891 122.443 -37.186 150.669 90.228 224.231 122.819 167.78 30.573 114.522 -4.595 94.218"/></g><g class="as"><polygon class="at" points="-6.524 98.005 -19.781 127.779 -33.037 157.553 101.369 217.394 127.881 157.846 30.573 114.522 -6.524 98.005"/></g><g class="au"><polygon class="av" points="-8.047 101.973 -18.119 132.97 -28.19 163.967 111.734 209.431 131.877 147.437 30.573 114.522 -8.047 101.973"/></g><g class="aw"><polygon class="ax" points="-9.148 106.079 -15.924 137.958 -22.7 169.838 121.21 200.427 134.762 136.668 30.573 114.522 -9.148 106.079"/></g><g class="ay"><polygon class="az" points="-9.813 110.277 -13.219 142.69 -16.626 175.104 129.693 190.482 136.507 125.656 30.573 114.522 -9.813 110.277"/></g><g class="ba"><polygon class="bb" points="-10.035 114.522 -10.035 150.855 -10.035 187.188 137.09 187.188 137.09 114.522 30.572 114.522 -10.035 114.522"/></g><polygon class="bc" points="112.425 61.684 19.316 91.937 -73.794 122.191 -40.424 224.895 145.796 164.388 112.425 61.684"/><polygon class="bd" points="109.419 57.082 30.215 114.627 -48.989 172.172 59.854 321.982 218.262 206.892 109.419 57.082"/><polygon class="be" points="115 65.676 30.215 114.627 -54.571 163.578 38.017 323.944 207.587 226.043 115 65.676"/><polygon class="bf" points="119.652 74.807 30.215 114.627 -59.223 154.447 16.095 323.613 194.97 243.973 119.652 74.807"/><g class="bg"><polygon class="bh" points="125.977 94.272 30.215 114.627 -65.547 134.982 -27.047 316.111 164.477 275.401 125.977 94.272"/></g><polygon class="bi" points="123.324 84.374 30.215 114.627 -62.895 144.88 -5.673 320.992 180.547 260.486 123.324 84.374"/></g><path class="bj" d="M61.5824,0A61.58,61.58,0,0,0,30.6675,114.8348l61.83-44.9222,29.2917-21.2815A61.5968,61.5968,0,0,0,61.5824,0Z"/></svg>